<svg xmlns="http://www.w3.org/2000/svg" viewBox="0 0 100 100" width="100" height="100">
  <circle cx="50" cy="50" r="50" fill="#5865F2" />
  <path d="M69.4,35.8c-3.5-1.6-7.2-2.8-11-3.4c-0.5,0.9-1.1,2-1.4,2.9c-4.1-0.6-8.1-0.6-12.1,0c-0.4-0.9-0.9-2-1.4-2.9
    c-3.8,0.6-7.5,1.8-11,3.4c-7,10.5-8.9,20.7-7.9,30.8c4.6,3.4,9.1,5.5,13.5,6.8c1.1-1.5,2-3.1,2.8-4.7c-1.5-0.6-3-1.3-4.4-2.1
    c0.4-0.3,0.7-0.6,1.1-0.9c8.2,3.8,17.1,3.8,25.3,0c0.3,0.3,0.7,0.6,1.1,0.9c-1.4,0.8-2.9,1.5-4.4,2.1c0.8,1.7,1.7,3.2,2.8,4.7
    c4.4-1.3,8.9-3.4,13.5-6.8C78.5,54.4,75.3,44.3,69.4,35.8z M41.8,59.1c-2.6,0-4.8-2.4-4.8-5.5c0-3,2.1-5.5,4.8-5.5
    c2.6,0,4.8,2.4,4.8,5.5C46.6,56.7,44.5,59.1,41.8,59.1z M58.2,59.1c-2.6,0-4.8-2.4-4.8-5.5c0-3,2.1-5.5,4.8-5.5
    c2.6,0,4.8,2.4,4.8,5.5C63,56.7,60.8,59.1,58.2,59.1z" fill="#FFFFFF"/>
</svg> 