<svg xmlns="http://www.w3.org/2000/svg" viewBox="0 0 400 300" width="400" height="300">
  <defs>
    <linearGradient id="grad" x1="0%" y1="0%" x2="100%" y2="100%">
      <stop offset="0%" style="stop-color:#546de5;stop-opacity:0.7" />
      <stop offset="100%" style="stop-color:#5865f2;stop-opacity:0.5" />
    </linearGradient>
  </defs>
  
  <!-- Background -->
  <rect width="400" height="300" fill="none"/>
  
  <!-- Discord-like shapes -->
  <g opacity="0.8">
    <!-- Main discord logo-like shape -->
    <path d="M200,70 C 180,80 160,100 150,140 C 140,180 180,230 200,240 C 220,230 260,180 250,140 C 240,100 220,80 200,70 Z" fill="white" opacity="0.2"/>
    
    <!-- Chat bubbles -->
    <circle cx="140" cy="120" r="40" fill="white" opacity="0.1"/>
    <circle cx="260" cy="120" r="40" fill="white" opacity="0.1"/>
    <circle cx="180" cy="200" r="30" fill="white" opacity="0.1"/>
    <circle cx="220" cy="200" r="30" fill="white" opacity="0.1"/>
    
    <!-- Squiggly lines for chat -->
    <path d="M100,100 Q 120,90 140,100 Q 160,110 180,100 Q 200,90 220,100 Q 240,110 260,100 Q 280,90 300,100" stroke="white" stroke-width="2" fill="none" opacity="0.3"/>
    <path d="M100,120 Q 120,110 140,120 Q 160,130 180,120 Q 200,110 220,120 Q 240,130 260,120 Q 280,110 300,120" stroke="white" stroke-width="2" fill="none" opacity="0.3"/>
    <path d="M100,140 Q 120,130 140,140 Q 160,150 180,140 Q 200,130 220,140 Q 240,150 260,140 Q 280,130 300,140" stroke="white" stroke-width="2" fill="none" opacity="0.3"/>
    
    <!-- Floating dots -->
    <circle cx="120" cy="60" r="5" fill="white" opacity="0.4"/>
    <circle cx="280" cy="60" r="3" fill="white" opacity="0.4"/>
    <circle cx="350" cy="100" r="4" fill="white" opacity="0.4"/>
    <circle cx="50" cy="150" r="6" fill="white" opacity="0.4"/>
    <circle cx="320" cy="200" r="5" fill="white" opacity="0.4"/>
    <circle cx="80" cy="220" r="4" fill="white" opacity="0.4"/>
    <circle cx="200" cy="280" r="3" fill="white" opacity="0.4"/>
  </g>
</svg> 