<svg xmlns="http://www.w3.org/2000/svg" viewBox="0 0 400 300" width="400" height="300">
  <rect width="400" height="300" fill="#2F3136" />
  <rect x="20" y="20" width="360" height="40" rx="5" fill="#36393F" />
  <rect x="20" y="80" width="100" height="200" rx="5" fill="#36393F" />
  <rect x="140" y="80" width="240" height="200" rx="5" fill="#36393F" />
  <circle cx="50" cy="40" r="10" fill="#3BA55D" />
  <rect x="80" y="35" width="100" height="10" rx="5" fill="#DCDDDE" />
  <rect x="40" y="100" width="60" height="10" rx="5" fill="#DCDDDE" />
  <rect x="40" y="130" width="60" height="10" rx="5" fill="#DCDDDE" />
  <rect x="40" y="160" width="60" height="10" rx="5" fill="#DCDDDE" />
  <rect x="160" y="100" width="200" height="10" rx="5" fill="#DCDDDE" />
  <rect x="160" y="130" width="200" height="10" rx="5" fill="#DCDDDE" />
  <rect x="160" y="160" width="200" height="10" rx="5" fill="#DCDDDE" />
  <rect x="160" y="190" width="200" height="10" rx="5" fill="#DCDDDE" />
  <rect x="160" y="220" width="120" height="10" rx="5" fill="#DCDDDE" />
</svg> 