<svg xmlns="http://www.w3.org/2000/svg" viewBox="0 0 400 300" width="400" height="300">
  <defs>
    <linearGradient id="grad" x1="0%" y1="0%" x2="100%" y2="100%">
      <stop offset="0%" style="stop-color:#546de5;stop-opacity:0.7" />
      <stop offset="100%" style="stop-color:#5865f2;stop-opacity:0.5" />
    </linearGradient>
  </defs>
  
  <!-- Background -->
  <rect width="400" height="300" fill="none"/>
  
  <!-- Discord-like shapes -->
  <g opacity="0.8">
    <!-- Stylized people/users -->
    <circle cx="150" cy="120" r="30" fill="white" opacity="0.2"/>
    <path d="M150,160 C 130,160 110,180 110,210 L190,210 C 190,180 170,160 150,160 Z" fill="white" opacity="0.2"/>
    
    <circle cx="250" cy="120" r="30" fill="white" opacity="0.2"/>
    <path d="M250,160 C 230,160 210,180 210,210 L290,210 C 290,180 270,160 250,160 Z" fill="white" opacity="0.2"/>
    
    <circle cx="200" cy="150" r="20" fill="white" opacity="0.1"/>
    <path d="M200,180 C 185,180 170,190 170,220 L230,220 C 230,190 215,180 200,180 Z" fill="white" opacity="0.1"/>
    
    <!-- Connection lines between users -->
    <line x1="150" y1="120" x2="200" y2="150" stroke="white" stroke-width="2" opacity="0.3"/>
    <line x1="250" y1="120" x2="200" y2="150" stroke="white" stroke-width="2" opacity="0.3"/>
    <line x1="150" y1="120" x2="250" y2="120" stroke="white" stroke-width="2" opacity="0.3"/>
    
    <!-- Server icon representations -->
    <rect x="70" y="70" width="20" height="20" rx="5" fill="white" opacity="0.3"/>
    <rect x="70" y="100" width="20" height="20" rx="10" fill="white" opacity="0.3"/>
    <rect x="70" y="130" width="20" height="20" rx="5" fill="white" opacity="0.3"/>
    <rect x="70" y="160" width="20" height="20" rx="10" fill="white" opacity="0.3"/>
    <rect x="70" y="190" width="20" height="20" rx="5" fill="white" opacity="0.3"/>
    
    <!-- Floating chat bubbles -->
    <circle cx="320" cy="80" r="15" fill="white" opacity="0.2"/>
    <circle cx="330" cy="120" r="10" fill="white" opacity="0.2"/>
    <circle cx="320" cy="150" r="12" fill="white" opacity="0.2"/>
    <circle cx="330" cy="190" r="14" fill="white" opacity="0.2"/>
    
    <!-- Floating dots -->
    <circle cx="100" cy="50" r="4" fill="white" opacity="0.4"/>
    <circle cx="300" cy="40" r="3" fill="white" opacity="0.4"/>
    <circle cx="350" cy="70" r="5" fill="white" opacity="0.4"/>
    <circle cx="40" cy="130" r="6" fill="white" opacity="0.4"/>
    <circle cx="280" cy="230" r="4" fill="white" opacity="0.4"/>
    <circle cx="120" cy="250" r="5" fill="white" opacity="0.4"/>
    <circle cx="200" cy="280" r="3" fill="white" opacity="0.4"/>
  </g>
</svg> 